<svg xmlns="http://www.w3.org/2000/svg" xmlns:xlink="http://www.w3.org/1999/xlink" viewBox="0 0 199.7 360.2"><defs><style>.cls-1{isolation:isolate;}.cls-2{fill:#010101;}.cls-3{fill:url(#linear-gradient);}.cls-4{fill:#646464;}.cls-22,.cls-33,.cls-34,.cls-4{mix-blend-mode:multiply;}.cls-15,.cls-20,.cls-45,.cls-46,.cls-5{mix-blend-mode:screen;}.cls-6{fill:url(#linear-gradient-2);}.cls-7{fill:url(#linear-gradient-3);}.cls-8{fill:url(#linear-gradient-4);}.cls-9{fill:url(#linear-gradient-5);}.cls-10{fill:url(#linear-gradient-6);}.cls-11{fill:url(#linear-gradient-7);}.cls-12{fill:url(#linear-gradient-8);}.cls-13{fill:#be202e;}.cls-14{fill:url(#linear-gradient-9);}.cls-15{fill:url(#linear-gradient-10);}.cls-16{fill:url(#linear-gradient-11);}.cls-17{fill:url(#linear-gradient-12);}.cls-18{fill:url(#linear-gradient-13);}.cls-19{fill:url(#linear-gradient-14);}.cls-20{fill:url(#linear-gradient-15);}.cls-21{fill:url(#linear-gradient-16);}.cls-23{fill:url(#linear-gradient-17);}.cls-24{fill:url(#linear-gradient-18);}.cls-25{fill:url(#linear-gradient-19);}.cls-26{fill:url(#linear-gradient-20);}.cls-27{fill:url(#linear-gradient-21);}.cls-28{fill:url(#linear-gradient-22);}.cls-29{fill:url(#linear-gradient-23);}.cls-30{fill:url(#linear-gradient-24);}.cls-31{fill:url(#linear-gradient-25);}.cls-32{fill:url(#linear-gradient-26);}.cls-33{fill:url(#linear-gradient-27);}.cls-34{fill:#c9c9c9;}.cls-35{fill:url(#linear-gradient-28);}.cls-36{fill:url(#linear-gradient-29);}.cls-37{fill:url(#linear-gradient-30);}.cls-38{fill:url(#linear-gradient-31);}.cls-39{fill:url(#linear-gradient-32);}.cls-40{fill:url(#linear-gradient-33);}.cls-41{fill:url(#linear-gradient-34);}.cls-42{fill:url(#linear-gradient-35);}.cls-43{fill:url(#linear-gradient-36);}.cls-44{fill:url(#linear-gradient-37);}.cls-45{fill:url(#linear-gradient-38);}.cls-46{fill:url(#linear-gradient-39);}</style><linearGradient id="linear-gradient" x1="343.75" y1="-171.31" x2="343.75" y2="-71.93" gradientTransform="translate(-182.4 459.5)" gradientUnits="userSpaceOnUse"><stop offset="0" stop-color="#3c3c3b"/><stop offset="0.35" stop-color="#9b9c9c"/><stop offset="0.67" stop-color="#272626"/><stop offset="1" stop-color="#1b1c1c"/></linearGradient><linearGradient id="linear-gradient-2" x1="327.14" y1="-171.31" x2="327.14" y2="-71.93" xlink:href="#linear-gradient"/><linearGradient id="linear-gradient-3" x1="562.9" y1="-171.31" x2="562.9" y2="-71.93" gradientTransform="matrix(-1, 0, 0, 1, 605.25, 459.51)" xlink:href="#linear-gradient"/><linearGradient id="linear-gradient-4" x1="546.29" y1="-171.31" x2="546.29" y2="-71.93" gradientTransform="matrix(-1, 0, 0, 1, 605.25, 459.51)" xlink:href="#linear-gradient"/><linearGradient id="linear-gradient-5" x1="220.92" y1="-34.31" x2="347.14" y2="-34.31" gradientTransform="translate(-182.4 348.3)" gradientUnits="userSpaceOnUse"><stop offset="0" stop-color="#fba819"/><stop offset="1" stop-color="#e56225"/></linearGradient><linearGradient id="linear-gradient-6" x1="220.92" y1="-108.82" x2="347.49" y2="-108.82" gradientTransform="translate(-182.4 348.3)" gradientUnits="userSpaceOnUse"><stop offset="0" stop-color="#cd7328"/><stop offset="1" stop-color="#c96828"/></linearGradient><linearGradient id="linear-gradient-7" x1="332.3" y1="-133.63" x2="342.32" y2="-133.63" gradientTransform="translate(-182.4 348.3)" gradientUnits="userSpaceOnUse"><stop offset="0" stop-color="#959494"/><stop offset="1" stop-color="#0e0f0f"/></linearGradient><linearGradient id="linear-gradient-8" x1="227.15" y1="-133.63" x2="237.17" y2="-133.63" xlink:href="#linear-gradient-7"/><linearGradient id="linear-gradient-9" x1="232.16" y1="-94.23" x2="336.24" y2="-94.23" gradientTransform="translate(-184.3 278.4)" gradientUnits="userSpaceOnUse"><stop offset="0" stop-color="#ec9322"/><stop offset="1" stop-color="#fac411"/></linearGradient><linearGradient id="linear-gradient-10" x1="236.32" y1="-94.23" x2="332.08" y2="-94.23" gradientTransform="translate(-184.3 278.4)" gradientUnits="userSpaceOnUse"><stop offset="0" stop-color="#616262"/><stop offset="1" stop-color="#010101"/></linearGradient><linearGradient id="linear-gradient-11" x1="101.06" y1="293.79" x2="101.06" y2="309.54" gradientTransform="translate(200.9 436.1) rotate(180)" gradientUnits="userSpaceOnUse"><stop offset="0" stop-color="#373c3a"/><stop offset="1" stop-color="#0e0f0f"/></linearGradient><linearGradient id="linear-gradient-12" x1="55.88" y1="302.17" x2="146.23" y2="302.17" gradientTransform="translate(200.9 436.1) rotate(180)" gradientUnits="userSpaceOnUse"><stop offset="0" stop-color="#3c3c3b"/><stop offset="0.35" stop-color="#9b9c9c"/><stop offset="0.56" stop-color="#999a9a"/><stop offset="0.68" stop-color="#919292"/><stop offset="0.76" stop-color="#848585"/><stop offset="0.84" stop-color="#717272"/><stop offset="0.9" stop-color="#595959"/><stop offset="0.96" stop-color="#3c3b3b"/><stop offset="1" stop-color="#272626"/></linearGradient><linearGradient id="linear-gradient-13" x1="242.12" y1="-157.75" x2="326.28" y2="-157.75" gradientTransform="translate(-184.3 278.4)" xlink:href="#linear-gradient-5"/><linearGradient id="linear-gradient-14" x1="232.16" y1="4.99" x2="336.24" y2="4.99" gradientTransform="translate(-184.3 278.4)" gradientUnits="userSpaceOnUse"><stop offset="0" stop-color="#ce8229"/><stop offset="1" stop-color="#fba819"/></linearGradient><linearGradient id="linear-gradient-15" x1="239.1" y1="0.42" x2="329.3" y2="0.42" xlink:href="#linear-gradient-10"/><linearGradient id="linear-gradient-16" x1="100.81" y1="97.36" x2="100.81" y2="84.94" gradientTransform="translate(200.9 436.1) rotate(180)" gradientUnits="userSpaceOnUse"><stop offset="0" stop-color="#fba819"/><stop offset="0.08" stop-color="#f5a11d"/><stop offset="0.2" stop-color="#ee9721"/><stop offset="1" stop-color="#b45426"/></linearGradient><linearGradient id="linear-gradient-17" x1="252.87" y1="-32.45" x2="320.79" y2="-32.45" gradientTransform="translate(-184.3 278.4)" gradientUnits="userSpaceOnUse"><stop offset="0" stop-color="#e0e1e0"/><stop offset="1" stop-color="#f3f3f3"/></linearGradient><linearGradient id="linear-gradient-18" x1="252.87" y1="-22.9" x2="320.79" y2="-22.9" xlink:href="#linear-gradient-17"/><linearGradient id="linear-gradient-19" x1="252.87" y1="-13.35" x2="320.79" y2="-13.35" xlink:href="#linear-gradient-17"/><linearGradient id="linear-gradient-20" x1="252.87" y1="-3.81" x2="320.79" y2="-3.81" xlink:href="#linear-gradient-17"/><linearGradient id="linear-gradient-21" x1="252.87" y1="5.74" x2="320.79" y2="5.74" xlink:href="#linear-gradient-17"/><linearGradient id="linear-gradient-22" x1="252.87" y1="15.29" x2="320.79" y2="15.29" xlink:href="#linear-gradient-17"/><linearGradient id="linear-gradient-23" x1="252.87" y1="24.84" x2="320.79" y2="24.84" xlink:href="#linear-gradient-17"/><linearGradient id="linear-gradient-24" x1="252.87" y1="34.39" x2="320.79" y2="34.39" xlink:href="#linear-gradient-17"/><linearGradient id="linear-gradient-25" x1="252.87" y1="43.93" x2="320.79" y2="43.93" xlink:href="#linear-gradient-17"/><linearGradient id="linear-gradient-26" x1="49.02" y1="261.32" x2="153.1" y2="261.32" xlink:href="#linear-gradient-11"/><linearGradient id="linear-gradient-27" x1="101.13" y1="191.21" x2="101.13" y2="208.38" gradientTransform="translate(200.9 436.1) rotate(180)" gradientUnits="userSpaceOnUse"><stop offset="0" stop-color="#fff"/><stop offset="1" stop-color="#b9b9b9"/></linearGradient><linearGradient id="linear-gradient-28" x1="278.26" y1="-22.78" x2="290.15" y2="-22.78" gradientTransform="translate(-182.4 348.3)" xlink:href="#linear-gradient-11"/><linearGradient id="linear-gradient-29" x1="95.11" y1="165.39" x2="107" y2="165.39" gradientTransform="translate(202.9 506) rotate(180)" gradientUnits="userSpaceOnUse"><stop offset="0" stop-color="#6a6a6a"/><stop offset="1" stop-color="#0e0f0f"/></linearGradient><linearGradient id="linear-gradient-30" x1="101.06" y1="334.11" x2="101.06" y2="422.02" gradientTransform="translate(200.9 436.1) rotate(180)" gradientUnits="userSpaceOnUse"><stop offset="0" stop-color="#e5e2df"/><stop offset="0" stop-color="#dedad6"/><stop offset="0.06" stop-color="#cfcbc9"/><stop offset="0.19" stop-color="#a8a4a7"/><stop offset="0.26" stop-color="#8c888e"/><stop offset="0.52" stop-color="#f3f4f4"/><stop offset="0.58" stop-color="#e5e5e6"/><stop offset="0.7" stop-color="#c0bec0"/><stop offset="0.87" stop-color="#858084"/><stop offset="0.88" stop-color="#817c80"/><stop offset="1" stop-color="#d2d3d4"/><stop offset="1" stop-color="#a8aaad"/></linearGradient><linearGradient id="linear-gradient-31" x1="101.07" y1="313.88" x2="101.07" y2="328.77" gradientTransform="translate(200.9 436.1) rotate(180)" gradientUnits="userSpaceOnUse"><stop offset="0" stop-color="#fac411"/><stop offset="1" stop-color="#ec9322"/></linearGradient><linearGradient id="linear-gradient-32" x1="101.07" y1="427.56" x2="101.07" y2="436.05" xlink:href="#linear-gradient-31"/><linearGradient id="linear-gradient-33" x1="197.57" y1="330.59" x2="197.57" y2="426.29" gradientTransform="translate(200.9 436.1) rotate(180)" xlink:href="#linear-gradient-5"/><linearGradient id="linear-gradient-34" x1="4.55" y1="330.59" x2="4.55" y2="426.29" gradientTransform="translate(200.9 436.1) rotate(180)" xlink:href="#linear-gradient-5"/><linearGradient id="linear-gradient-35" x1="191.17" y1="366.55" x2="191.17" y2="389.22" gradientTransform="translate(200.9 436.1) rotate(180)" gradientUnits="userSpaceOnUse"><stop offset="0" stop-color="#898684"/><stop offset="0" stop-color="#817f7d"/><stop offset="0.06" stop-color="#72706f"/><stop offset="0.19" stop-color="#4b4a4b"/><stop offset="0.26" stop-color="#2f2e30"/><stop offset="0.52" stop-color="#969797"/><stop offset="0.59" stop-color="#888"/><stop offset="0.71" stop-color="#626162"/><stop offset="0.87" stop-color="#252324"/><stop offset="0.88" stop-color="#242223"/><stop offset="1" stop-color="#767778"/><stop offset="1" stop-color="#4e4f50"/></linearGradient><linearGradient id="linear-gradient-36" x1="10.94" y1="366.55" x2="10.94" y2="389.22" xlink:href="#linear-gradient-35"/><linearGradient id="linear-gradient-37" x1="101.08" y1="201.94" x2="101.08" y2="208.63" xlink:href="#linear-gradient-16"/><linearGradient id="linear-gradient-38" x1="41.96" y1="109.93" x2="54.3" y2="109.93" gradientTransform="translate(202.9 506) rotate(180)" gradientUnits="userSpaceOnUse"><stop offset="0" stop-color="#010101"/><stop offset="1" stop-color="#959494"/></linearGradient><linearGradient id="linear-gradient-39" x1="-192.14" y1="109.93" x2="-179.79" y2="109.93" gradientTransform="matrix(1, 0, 0, -1, 234.85, 506.04)" xlink:href="#linear-gradient-38"/></defs><g class="cls-1"><g id="Layer_1" data-name="Layer 1"><polygon class="cls-2" points="126.7 280.2 140.6 280.2 141 256.1 127.1 256.1 126.7 280.2"/><rect class="cls-2" x="150.6" y="226.7" width="1.1" height="83.91"/><path class="cls-3" d="M165.7,288.1H157c-1.9,0-3.4,3.8-3.4,8.5v81.7c0,4.7,1.5,8.6,3.4,8.6h8.7c1.9,0,3.5-3.9,3.5-8.6V296.6C169.2,291.9,167.6,288.1,165.7,288.1Z" transform="translate(-2 -69.9)"/><path class="cls-4" d="M153.6,296.6h3.9v-5.8h-3A16.1,16.1,0,0,0,153.6,296.6Z" transform="translate(-2 -69.9)"/><rect class="cls-4" x="151.2" y="234.7" width="4.4" height="5.73"/><rect class="cls-4" x="151.2" y="248.5" width="4.4" height="5.74"/><rect class="cls-4" x="151.2" y="262.3" width="4.4" height="5.73"/><rect class="cls-4" x="151.2" y="276" width="4.4" height="5.73"/><rect class="cls-4" x="151.2" y="289.8" width="4.4" height="5.73"/><rect class="cls-4" x="151.2" y="303.6" width="4.4" height="5.73"/><path class="cls-4" d="M164.8,290.8v5.8h4.4a15.9,15.9,0,0,0-1-5.8Z" transform="translate(-2 -69.9)"/><rect class="cls-4" x="162.8" y="234.7" width="4.4" height="5.73"/><rect class="cls-4" x="162.8" y="248.5" width="4.4" height="5.74"/><rect class="cls-4" x="162.8" y="262.3" width="4.4" height="5.73"/><rect class="cls-4" x="162.8" y="276" width="4.4" height="5.73"/><rect class="cls-4" x="162.8" y="289.8" width="4.4" height="5.73"/><rect class="cls-4" x="162.8" y="303.6" width="4.4" height="5.73"/><rect class="cls-4" x="157.2" y="228.6" width="4.4" height="5.73"/><rect class="cls-4" x="157.2" y="242.4" width="4.4" height="5.73"/><rect class="cls-4" x="157.2" y="256.1" width="4.4" height="5.73"/><rect class="cls-4" x="157.2" y="269.9" width="4.4" height="5.73"/><rect class="cls-4" x="157.2" y="283.7" width="4.4" height="5.73"/><rect class="cls-4" x="157.2" y="297.5" width="4.4" height="5.73"/><g class="cls-5"><rect class="cls-4" x="157.2" y="220.9" width="4.4" height="5.74"/><rect class="cls-4" x="157.2" y="234.7" width="4.4" height="5.73"/><rect class="cls-4" x="157.2" y="248.5" width="4.4" height="5.74"/><rect class="cls-4" x="157.2" y="262.3" width="4.4" height="5.73"/><rect class="cls-4" x="157.2" y="276" width="4.4" height="5.73"/><rect class="cls-4" x="157.2" y="289.8" width="4.4" height="5.73"/><rect class="cls-4" x="157.2" y="303.6" width="4.4" height="5.73"/></g><g class="cls-5"><rect class="cls-4" x="162.8" y="228.6" width="4.4" height="5.73"/><rect class="cls-4" x="162.8" y="242.4" width="4.4" height="5.73"/><rect class="cls-4" x="162.8" y="256.1" width="4.4" height="5.73"/><rect class="cls-4" x="162.8" y="269.9" width="4.4" height="5.73"/><rect class="cls-4" x="162.8" y="283.7" width="4.4" height="5.73"/><rect class="cls-4" x="162.8" y="297.5" width="4.4" height="5.73"/></g><g class="cls-5"><rect class="cls-4" x="151.2" y="228.6" width="4.4" height="5.73"/><rect class="cls-4" x="151.2" y="242.4" width="4.4" height="5.73"/><rect class="cls-4" x="151.2" y="256.1" width="4.4" height="5.73"/><rect class="cls-4" x="151.2" y="269.9" width="4.4" height="5.73"/><rect class="cls-4" x="151.2" y="283.7" width="4.4" height="5.73"/><rect class="cls-4" x="151.2" y="297.5" width="4.4" height="5.73"/></g><path class="cls-6" d="M149.1,288.1h-8.7c-1.9,0-3.5,3.8-3.5,8.5v81.7c0,4.7,1.6,8.6,3.5,8.6h8.7c1.9,0,3.5-3.9,3.5-8.6V296.6C152.6,291.9,151,288.1,149.1,288.1Z" transform="translate(-2 -69.9)"/><path class="cls-4" d="M136.9,296.6h4v-5.8h-3A15.9,15.9,0,0,0,136.9,296.6Z" transform="translate(-2 -69.9)"/><rect class="cls-4" x="135" y="234.7" width="4" height="5.73"/><rect class="cls-4" x="135" y="248.5" width="4" height="5.74"/><rect class="cls-4" x="134.6" y="262.3" width="4.4" height="5.73"/><rect class="cls-4" x="135" y="276" width="4" height="5.73"/><rect class="cls-4" x="135" y="289.8" width="4" height="5.73"/><rect class="cls-4" x="135" y="303.6" width="4" height="5.73"/><path class="cls-4" d="M148.1,290.8v5.8h4.5a15.9,15.9,0,0,0-1-5.8Z" transform="translate(-2 -69.9)"/><rect class="cls-4" x="146.2" y="234.7" width="4.4" height="5.73"/><rect class="cls-4" x="146.2" y="248.5" width="4.4" height="5.74"/><rect class="cls-4" x="146.2" y="262.3" width="4.4" height="5.73"/><rect class="cls-4" x="146.2" y="276" width="4.4" height="5.73"/><rect class="cls-4" x="146.2" y="289.8" width="4.4" height="5.73"/><rect class="cls-4" x="146.2" y="303.6" width="4.4" height="5.73"/><rect class="cls-4" x="140.6" y="228.6" width="4.4" height="5.73"/><rect class="cls-4" x="140.6" y="242.4" width="4.4" height="5.73"/><rect class="cls-4" x="140.6" y="256.1" width="4.4" height="5.73"/><rect class="cls-4" x="140.6" y="269.9" width="4.4" height="5.73"/><rect class="cls-4" x="140.6" y="283.7" width="4.4" height="5.73"/><rect class="cls-4" x="140.6" y="297.5" width="4.4" height="5.73"/><g class="cls-5"><rect class="cls-4" x="140.6" y="220.9" width="4.4" height="5.74"/><rect class="cls-4" x="140.6" y="234.7" width="4.4" height="5.73"/><rect class="cls-4" x="140.6" y="248.5" width="4.4" height="5.74"/><rect class="cls-4" x="140.6" y="262.3" width="4.4" height="5.73"/><rect class="cls-4" x="140.6" y="276" width="4.4" height="5.73"/><rect class="cls-4" x="140.6" y="289.8" width="4.4" height="5.73"/><rect class="cls-4" x="140.6" y="303.6" width="4.4" height="5.73"/></g><g class="cls-5"><rect class="cls-4" x="146.2" y="228.6" width="4.4" height="5.73"/><rect class="cls-4" x="146.2" y="242.4" width="4.4" height="5.73"/><rect class="cls-4" x="146.2" y="256.1" width="4.4" height="5.73"/><rect class="cls-4" x="146.2" y="269.9" width="4.4" height="5.73"/><rect class="cls-4" x="146.2" y="283.7" width="4.4" height="5.73"/><rect class="cls-4" x="146.2" y="297.5" width="4.4" height="5.73"/></g><g class="cls-5"><rect class="cls-4" x="135" y="228.6" width="4" height="5.73"/><rect class="cls-4" x="135" y="242.4" width="4" height="5.73"/><rect class="cls-4" x="135" y="256.1" width="4" height="5.73"/><rect class="cls-4" x="134.6" y="269.9" width="4.4" height="5.73"/><rect class="cls-4" x="135" y="283.7" width="4" height="5.73"/><rect class="cls-4" x="135" y="297.5" width="4" height="5.73"/></g><polygon class="cls-2" points="73.2 280.2 59.2 280.2 58.8 256.1 72.8 256.1 73.2 280.2"/><rect class="cls-2" x="48.1" y="226.7" width="1.1" height="83.91"/><path class="cls-7" d="M38,288.1h8.7c1.9,0,3.5,3.8,3.5,8.5v81.7c0,4.7-1.6,8.6-3.5,8.6H38c-1.9,0-3.5-3.9-3.5-8.6V296.6C34.5,291.9,36.1,288.1,38,288.1Z" transform="translate(-2 -69.9)"/><path class="cls-4" d="M50.2,296.6h-4v-5.8h3A15.9,15.9,0,0,1,50.2,296.6Z" transform="translate(-2 -69.9)"/><rect class="cls-4" x="44.2" y="234.7" width="4.4" height="5.73"/><rect class="cls-4" x="44.2" y="248.5" width="4.4" height="5.74"/><rect class="cls-4" x="44.2" y="262.3" width="4.4" height="5.73"/><rect class="cls-4" x="44.2" y="276" width="4.4" height="5.73"/><rect class="cls-4" x="44.2" y="289.8" width="4.4" height="5.73"/><rect class="cls-4" x="44.2" y="303.6" width="4.4" height="5.73"/><path class="cls-4" d="M39,290.8v5.8H34.5a15.9,15.9,0,0,1,1-5.8Z" transform="translate(-2 -69.9)"/><rect class="cls-4" x="32.6" y="234.7" width="4.4" height="5.73"/><rect class="cls-4" x="32.6" y="248.5" width="4.4" height="5.74"/><rect class="cls-4" x="32.6" y="262.3" width="4.4" height="5.73"/><rect class="cls-4" x="32.6" y="276" width="4.4" height="5.73"/><rect class="cls-4" x="32.6" y="289.8" width="4.4" height="5.73"/><rect class="cls-4" x="32.6" y="303.6" width="4.4" height="5.73"/><rect class="cls-4" x="38.2" y="228.6" width="4.4" height="5.73"/><rect class="cls-4" x="38.2" y="242.4" width="4.4" height="5.73"/><rect class="cls-4" x="38.2" y="256.1" width="4.4" height="5.73"/><rect class="cls-4" x="38.2" y="269.9" width="4.4" height="5.73"/><rect class="cls-4" x="38.2" y="283.7" width="4.4" height="5.73"/><rect class="cls-4" x="38.2" y="297.5" width="4.4" height="5.73"/><g class="cls-5"><rect class="cls-4" x="38.2" y="220.9" width="4.4" height="5.74"/><rect class="cls-4" x="38.2" y="234.7" width="4.4" height="5.73"/><rect class="cls-4" x="38.2" y="248.5" width="4.4" height="5.74"/><rect class="cls-4" x="38.2" y="262.3" width="4.4" height="5.73"/><rect class="cls-4" x="38.2" y="276" width="4.4" height="5.73"/><rect class="cls-4" x="38.2" y="289.8" width="4.4" height="5.73"/><rect class="cls-4" x="38.2" y="303.6" width="4.4" height="5.73"/></g><g class="cls-5"><rect class="cls-4" x="32.6" y="228.6" width="4.4" height="5.73"/><rect class="cls-4" x="32.6" y="242.4" width="4.4" height="5.73"/><rect class="cls-4" x="32.6" y="256.1" width="4.4" height="5.73"/><rect class="cls-4" x="32.6" y="269.9" width="4.4" height="5.73"/><rect class="cls-4" x="32.6" y="283.7" width="4.4" height="5.73"/><rect class="cls-4" x="32.6" y="297.5" width="4.4" height="5.73"/></g><g class="cls-5"><rect class="cls-4" x="44.2" y="228.6" width="4.4" height="5.73"/><rect class="cls-4" x="44.2" y="242.4" width="4.4" height="5.73"/><rect class="cls-4" x="44.2" y="256.1" width="4.4" height="5.73"/><rect class="cls-4" x="44.2" y="269.9" width="4.4" height="5.73"/><rect class="cls-4" x="44.2" y="283.7" width="4.4" height="5.73"/><rect class="cls-4" x="44.2" y="297.5" width="4.4" height="5.73"/></g><path class="cls-8" d="M54.6,288.1h8.7c1.9,0,3.5,3.8,3.5,8.5v81.7c0,4.7-1.6,8.6-3.5,8.6H54.6c-1.9,0-3.4-3.9-3.4-8.6V296.6C51.2,291.9,52.7,288.1,54.6,288.1Z" transform="translate(-2 -69.9)"/><path class="cls-4" d="M66.8,296.6h-4v-5.8h3A15.9,15.9,0,0,1,66.8,296.6Z" transform="translate(-2 -69.9)"/><rect class="cls-4" x="60.8" y="234.7" width="4" height="5.73"/><rect class="cls-4" x="60.8" y="248.5" width="4" height="5.74"/><rect class="cls-4" x="60.8" y="262.3" width="4.4" height="5.73"/><rect class="cls-4" x="60.8" y="276" width="4" height="5.73"/><rect class="cls-4" x="60.8" y="289.8" width="4" height="5.73"/><rect class="cls-4" x="60.8" y="303.6" width="4" height="5.73"/><path class="cls-4" d="M55.6,290.8v5.8H51.2a16.1,16.1,0,0,1,.9-5.8Z" transform="translate(-2 -69.9)"/><rect class="cls-4" x="49.2" y="234.7" width="4.4" height="5.73"/><rect class="cls-4" x="49.2" y="248.5" width="4.4" height="5.74"/><rect class="cls-4" x="49.2" y="262.3" width="4.4" height="5.73"/><rect class="cls-4" x="49.2" y="276" width="4.4" height="5.73"/><rect class="cls-4" x="49.2" y="289.8" width="4.4" height="5.73"/><rect class="cls-4" x="49.2" y="303.6" width="4.4" height="5.73"/><rect class="cls-4" x="54.8" y="228.6" width="4.4" height="5.73"/><rect class="cls-4" x="54.8" y="242.4" width="4.4" height="5.73"/><rect class="cls-4" x="54.8" y="256.1" width="4.4" height="5.73"/><rect class="cls-4" x="54.8" y="269.9" width="4.4" height="5.73"/><rect class="cls-4" x="54.8" y="283.7" width="4.4" height="5.73"/><rect class="cls-4" x="54.8" y="297.5" width="4.4" height="5.73"/><g class="cls-5"><rect class="cls-4" x="54.8" y="220.9" width="4.4" height="5.74"/><rect class="cls-4" x="54.8" y="234.7" width="4.4" height="5.73"/><rect class="cls-4" x="54.8" y="248.5" width="4.4" height="5.74"/><rect class="cls-4" x="54.8" y="262.3" width="4.4" height="5.73"/><rect class="cls-4" x="54.8" y="276" width="4.4" height="5.73"/><rect class="cls-4" x="54.8" y="289.8" width="4.4" height="5.73"/><rect class="cls-4" x="54.8" y="303.6" width="4.4" height="5.73"/></g><g class="cls-5"><rect class="cls-4" x="49.2" y="228.6" width="4.4" height="5.73"/><rect class="cls-4" x="49.2" y="242.4" width="4.4" height="5.73"/><rect class="cls-4" x="49.2" y="256.1" width="4.4" height="5.73"/><rect class="cls-4" x="49.2" y="269.9" width="4.4" height="5.73"/><rect class="cls-4" x="49.2" y="283.7" width="4.4" height="5.73"/><rect class="cls-4" x="49.2" y="297.5" width="4.4" height="5.73"/></g><g class="cls-5"><rect class="cls-4" x="60.8" y="228.6" width="4" height="5.73"/><rect class="cls-4" x="60.8" y="242.4" width="4" height="5.73"/><rect class="cls-4" x="60.8" y="256.1" width="4" height="5.73"/><rect class="cls-4" x="60.8" y="269.9" width="4.4" height="5.73"/><rect class="cls-4" x="60.8" y="283.7" width="4" height="5.73"/><rect class="cls-4" x="60.8" y="297.5" width="4" height="5.73"/></g><path class="cls-9" d="M155.7,430.1H47.9c-2.1,0-3.7-2.4-3.7-5.5L38.5,197.8H164.8l-5.3,226.8C159.5,427.7,157.8,430.1,155.7,430.1Z" transform="translate(-2 -69.9)"/><path class="cls-10" d="M162.7,281.1H40.9c-1.3,0-2.4-1.6-2.4-3.7V201.5c0-2,1.1-3.7,2.4-3.7H162.7c1.3,0,2.4,1.7,2.4,3.7v75.9C165.1,279.5,164,281.1,162.7,281.1Z" transform="translate(-2 -69.9)"/><path class="cls-11" d="M159.9,214.6c0,2-2.2,3.5-5,3.5s-5-1.5-5-3.5,2.3-3.4,5-3.4S159.9,212.7,159.9,214.6Z" transform="translate(-2 -69.9)"/><path class="cls-12" d="M54.8,214.6c0,2-2.3,3.5-5,3.5s-5-1.5-5-3.5,2.2-3.4,5-3.4S54.8,212.7,54.8,214.6Z" transform="translate(-2 -69.9)"/><path class="cls-13" d="M163.5,206.5c0-.6-.9-1.1-1.9-1.1h-8.2c-1,0-1.8.5-1.8,1.1v3.7c0,.6.8,1,1.8,1h8.2c1,0,1.9-.4,1.9-1Z" transform="translate(-2 -69.9)"/><path class="cls-13" d="M51.7,206.5c0-.6-.8-1.1-1.8-1.1H41.7c-1,0-1.9.5-1.9,1.1v3.7c0,.6.9,1,1.9,1h8.2c1,0,1.8-.4,1.8-1Z" transform="translate(-2 -69.9)"/><rect class="cls-14" x="47.8" y="140.8" width="104.1" height="86.81"/><rect class="cls-15" x="52" y="146.2" width="95.8" height="75.84"/><polygon class="cls-16" points="151.9 140.8 47.8 140.8 58.5 127.2 141.3 127.2 151.9 140.8"/><polygon class="cls-17" points="54.7 137.1 59.6 130.9 140.1 130.9 145 137.1 54.7 137.1"/><rect class="cls-18" x="57.8" y="114.1" width="84.2" height="13.13"/><polygon class="cls-19" points="150.9 339.2 48.8 339.2 47.8 227.6 151.9 227.6 150.9 339.2"/><rect class="cls-20" x="54.8" y="227.6" width="90.2" height="102.49"/><polygon class="cls-21" points="144.9 351.1 55.3 351.1 49.1 339.2 151.1 339.2 144.9 351.1"/><g class="cls-22"><rect class="cls-23" x="68.5" y="244.1" width="67.9" height="3.71"/><rect class="cls-24" x="68.5" y="253.6" width="67.9" height="3.71"/><rect class="cls-25" x="68.5" y="263.2" width="67.9" height="3.71"/><rect class="cls-26" x="68.5" y="272.7" width="67.9" height="3.71"/><rect class="cls-27" x="68.5" y="282.3" width="67.9" height="3.71"/><rect class="cls-28" x="68.5" y="291.8" width="67.9" height="3.71"/><rect class="cls-29" x="68.5" y="301.4" width="67.9" height="3.71"/><rect class="cls-30" x="68.5" y="310.9" width="67.9" height="3.71"/><rect class="cls-31" x="68.5" y="320.5" width="67.9" height="3.71"/></g><polygon class="cls-32" points="47.8 160.7 57 160.7 57 209.1 142.7 209.1 142.7 160.7 151.9 160.7 151.9 140.8 142.7 140.8 142.7 140.5 57 140.5 57 140.8 47.8 140.8 47.8 160.7"/><rect class="cls-33" x="47.7" y="227.6" width="104.2" height="17.66"/><path class="cls-34" d="M99.4,318.5c2.5-1.7,5.7-.7,7.2,2.4h0a7.1,7.1,0,0,1-1.9,8.7L85.3,340.5c-2.5,1.8-6,.9-7.3-2.6s-.5-6.6,2-8.4Z" transform="translate(-2 -69.9)"/><path class="cls-35" d="M107.8,325.5c0,4.3-2.7,7.8-6,7.8s-5.9-3.5-5.9-7.8,2.6-7.8,5.9-7.8S107.8,321.2,107.8,325.5Z" transform="translate(-2 -69.9)"/><path class="cls-36" d="M101.8,355.8c3.3,0,6-3.5,6-7.8V325.5H95.9V348C95.9,352.3,98.5,355.8,101.8,355.8Z" transform="translate(-2 -69.9)"/><rect class="cls-37" x="12.9" y="13.1" width="173.8" height="90.45"/><rect class="cls-38" y="107.2" width="199.7" height="15.32"/><rect class="cls-39" width="199.7" height="8.73"/><rect class="cls-40" x="0.2" y="8.7" width="6.4" height="98.47"/><rect class="cls-41" x="193.2" y="8.7" width="6.4" height="98.47"/><rect class="cls-42" x="6.6" y="46.7" width="6.4" height="23.32"/><rect class="cls-43" x="186.8" y="46.7" width="6.4" height="23.32"/><polygon class="cls-44" points="55.1 234.3 144.5 234.3 151.9 227.4 47.8 227.4 55.1 234.3"/><path class="cls-45" d="M157.5,362.6s1.4,38.8-2.2,54.3c-2.8,12.3-5.7,9-6.7,13.2h7.1c2.1,0,3.8-2.4,3.8-5.5l1.4-62.5Z" transform="translate(-2 -69.9)"/><path class="cls-46" d="M46.1,362.6s-1.4,38.8,2.2,54.3c2.8,12.3,5.7,9,6.8,13.2H47.9c-2.1,0-3.7-2.4-3.7-5.5l-1.5-62.5Z" transform="translate(-2 -69.9)"/></g></g></svg>