<svg id="Layer_1" data-name="Layer 1" xmlns="http://www.w3.org/2000/svg" xmlns:xlink="http://www.w3.org/1999/xlink" viewBox="0 0 150 493"><defs><style>.cls-1{fill:#0c2229;}.cls-2{fill:#9a8479;}.cls-3{fill:#ad9a8f;}.cls-4{fill:#9a1c20;}.cls-5{fill:#b92029;}.cls-6{fill:#d2202f;}.cls-7{fill:url(#linear-gradient);}.cls-8{fill:url(#linear-gradient-2);}.cls-9{fill:#25333b;}.cls-10{fill:#771213;}.cls-11{fill:#c0bdbe;}.cls-12{fill:#a8a5a7;}.cls-13{fill:#b9b7b9;}.cls-14{fill:#d4d2d3;}.cls-15{fill:url(#linear-gradient-3);}.cls-16{fill:#fff;}</style><linearGradient id="linear-gradient" x1="-244.04" y1="241.96" x2="-199.5" y2="241.96" gradientTransform="translate(344.2 261.1) rotate(90)" gradientUnits="userSpaceOnUse"><stop offset="0" stop-color="#ef3e24"/><stop offset="0.39" stop-color="#e73627"/><stop offset="1" stop-color="#d2202f"/><stop offset="1" stop-color="#d2202f"/></linearGradient><linearGradient id="linear-gradient-2" x1="-167.31" y1="242.59" x2="-121.44" y2="242.59" xlink:href="#linear-gradient"/><linearGradient id="linear-gradient-3" x1="-110.81" y1="242.41" x2="19.37" y2="242.41" gradientTransform="translate(344.2 261.1) rotate(90)" gradientUnits="userSpaceOnUse"><stop offset="0" stop-color="#e4e2e2"/><stop offset="0.61" stop-color="#dcdadb"/><stop offset="1" stop-color="#d4d2d3"/></linearGradient></defs><rect class="cls-1" x="89.8" y="117.1" width="24.6" height="85.73" transform="translate(235.3 54.3) rotate(90)"/><rect class="cls-2" x="130" y="16.4" width="9.3" height="4.22" transform="translate(126.4 -119.7) rotate(90)"/><rect class="cls-2" x="64.8" y="16.4" width="9.3" height="4.22" transform="translate(61.2 -54.5) rotate(90)"/><path class="cls-2" d="M49.3,26.2a2.7,2.7,0,0,1,.6-1.7C58.5,11.8,79,3.6,102,3.6s42.8,7.9,51.7,20.1A3.1,3.1,0,0,1,153,28a3.1,3.1,0,0,1-4.3-.6C140.9,16.7,122.6,9.8,102,9.8S62.4,17.1,54.9,27.9a3.1,3.1,0,0,1-5.6-1.7Z" transform="translate(-26.8 -3.6)"/><path class="cls-3" d="M51.4,26.2a.7.7,0,0,1,.2-.6C59.9,13.5,79.7,5.7,102,5.7s41.5,7.5,50,19.3a.7.7,0,0,1,.2.6.9.9,0,0,1-.4.8,1.1,1.1,0,0,1-1.4-.2C142.2,14.9,123.2,7.7,102,7.7S61,15.4,53.2,26.8a.9.9,0,0,1-.6.4,1.3,1.3,0,0,1-.8-.2A.9.9,0,0,1,51.4,26.2Z" transform="translate(-26.8 -3.6)"/><path class="cls-4" d="M139.5,155.9c11.4-.8,16.6-9,16.6-16.6V40.9c0-7.7-11.7-17.2-22.8-20.8,0,0-7.7-11.2-32.2-11.2S70.3,20.1,70.3,20.1C61,22.6,47.5,33.6,47.5,40.9v98.4c0,7.3,3.8,15.8,16.6,16.6,0,0,12.5.3,37,.3S139.5,155.9,139.5,155.9Z" transform="translate(-26.8 -3.6)"/><path class="cls-5" d="M52.3,38.7c0-3.6,11.4-13.4,19.1-15.5.2-.1,6.2-11.1,29.6-11.1s31.2,11.1,31.3,11.1c12.9,4.1,19,13.7,19,15.5V141.5c0,1.8.1,10.9-12.9,11.4H65.3c-8.6-.1-12.2-4.7-13-11.4Z" transform="translate(-26.8 -3.6)"/><path class="cls-6" d="M55.3,38.7c0-2.4,10.5-10.9,16.9-12.7,1.4-.4,7.2-10.9,28.8-10.9S131.3,26,131.5,26c8.8,2.9,16.8,8.5,16.8,12.7V141.5c0,3.4-3.4,8.5-10.8,8.5H66.3c-6.5.1-11.2-5.3-11-8.6Z" transform="translate(-26.8 -3.6)"/><path class="cls-7" d="M127.8,25.7S120.5,17,102.2,17,75.4,27.1,75.4,27.1L66.5,61.6H138Z" transform="translate(-26.8 -3.6)"/><path class="cls-8" d="M137.3,99.6s-5.3-5.8-37.6-5.8-33.8,5.6-33.8,5.6v40.2h71.4Z" transform="translate(-26.8 -3.6)"/><polygon class="cls-5" points="102.6 19.6 114.4 62.8 106.8 22.2 102.6 19.6"/><polygon class="cls-5" points="47.4 19.6 35.6 62.8 43.2 22.2 47.4 19.6"/><polygon class="cls-1" points="29.7 79.5 29.7 139.2 37.2 136.1 37.2 98.5 29.7 79.5"/><polygon class="cls-6" points="37.2 115.1 37.2 119.9 29.7 121 29.7 115.3 37.2 115.1"/><polygon class="cls-1" points="120.4 79.5 120.4 139.2 112.8 136.1 112.8 98.5 120.4 79.5"/><polygon class="cls-6" points="112.8 115.1 112.8 119.9 120.4 121 120.4 115.3 112.8 115.1"/><path class="cls-1" d="M76.8,91.6s8.2-1.3,24.4-1.3a201.4,201.4,0,0,1,25.4,1.3c8.3,1.4,10.9,3.2,10.9,3.2l8.8-22.5c0-2.4-12.5-4.2-19.7-5.3a201.4,201.4,0,0,0-25.4-1.3C85,65.7,76.8,67,76.8,67c-5.1.9-19.7,3-19.7,5.3l8.7,22.5S69.4,92.7,76.8,91.6Z" transform="translate(-26.8 -3.6)"/><path class="cls-9" d="M126.6,67a201.4,201.4,0,0,0-25.4-1.3C85,65.7,76.8,67,76.8,67c-5.1.9-19.7,3-19.7,5.3l1.5,3.9a78,78,0,0,0,8.9,1.7s11.4,1.4,34,1.4,35.3-1.4,35.3-1.4l7.7-1.2,1.8-4.4C146.3,69.9,133.8,68.1,126.6,67Z" transform="translate(-26.8 -3.6)"/><rect class="cls-10" x="117.9" y="75" width="16.9" height="5.91" rx="2.1"/><rect class="cls-10" x="15.3" y="75" width="16.9" height="5.91" rx="2.1"/><path class="cls-6" d="M101.1,496.6a122.9,122.9,0,0,0,30.9-3.9V486c30.3-7.6,44.8-24.2,44.8-24.2v-277s-14.5-16.7-44.8-24.2v-6.7a118.5,118.5,0,0,0-30.9-3.9,122.4,122.4,0,0,0-29.5,3.5v6.9c-30.6,7.5-44.8,24.4-44.8,24.4v277S41,478.7,71.6,486.2V493A117.3,117.3,0,0,0,101.1,496.6Z" transform="translate(-26.8 -3.6)"/><path class="cls-11" d="M176.8,457.6V180.7s-24.2-27.9-75.4-27.9-74.6,27.9-74.6,27.9V457.6s23.4,27.9,74.6,27.9S176.8,457.6,176.8,457.6Z" transform="translate(-26.8 -3.6)"/><path class="cls-12" d="M176.8,457.6V180.7s-24.2-27.9-75.4-27.9-74.6,27.9-74.6,27.9V457.6s23.4,27.9,74.6,27.9S176.8,457.6,176.8,457.6Z" transform="translate(-26.8 -3.6)"/><path class="cls-13" d="M101.1,152.8c-25.9,0-44.6,7.1-56.9,14.2V471.4c12.3,7,31,14.1,56.9,14.1s45.9-7.5,58.3-14.7V167.6C147,160.3,127.6,152.8,101.1,152.8Z" transform="translate(-26.8 -3.6)"/><path class="cls-14" d="M101.1,145.9a122.4,122.4,0,0,0-29.5,3.5V488.9a117.3,117.3,0,0,0,29.5,3.6,122.9,122.9,0,0,0,30.9-3.9V149.8A118.5,118.5,0,0,0,101.1,145.9Z" transform="translate(-26.8 -3.6)"/><path class="cls-15" d="M76.6,280.5V152.8a115,115,0,0,1,24.5-2.5,115.5,115.5,0,0,1,25.9,2.8v127Z" transform="translate(-26.8 -3.6)"/><ellipse class="cls-12" cx="75" cy="210" rx="19.2" ry="16.9"/><ellipse class="cls-16" cx="75" cy="206.1" rx="19.2" ry="16.9"/><ellipse class="cls-12" cx="75" cy="330.8" rx="19.2" ry="16.9"/><ellipse class="cls-16" cx="75" cy="326.9" rx="19.2" ry="16.9"/><ellipse class="cls-12" cx="75" cy="444.4" rx="19.2" ry="16.9"/><ellipse class="cls-16" cx="75" cy="440.5" rx="19.2" ry="16.9"/><path class="cls-9" d="M144.7,455.6V187.8a2.4,2.4,0,0,0-4.8,0V455.6a2.4,2.4,0,0,0,4.8,0Z" transform="translate(-26.8 -3.6)"/><path class="cls-9" d="M58.9,455.6V187.8a2.4,2.4,0,0,1,4.8,0V455.6a2.4,2.4,0,0,1-4.8,0Z" transform="translate(-26.8 -3.6)"/></svg>